<mxfile host="Electron" agent="Mozilla/5.0 (Windows NT 10.0; Win64; x64) AppleWebKit/537.36 (KHTML, like Gecko) draw.io/25.0.2 Chrome/128.0.6613.186 Electron/32.2.5 Safari/537.36" version="25.0.2">
  <diagram id="R2lEEEUBdFMjLlhIrx00" name="Page-1">
    <mxGraphModel dx="1098" dy="-2462" grid="1" gridSize="10" guides="1" tooltips="1" connect="1" arrows="1" fold="1" page="1" pageScale="1" pageWidth="850" pageHeight="1100" math="0" shadow="0" extFonts="Permanent Marker^https://fonts.googleapis.com/css?family=Permanent+Marker">
      <root>
        <mxCell id="0" />
        <mxCell id="1" parent="0" />
        <mxCell id="kvPZV8qKF9iL3hVnG-OZ-1" value="8. Entidades débiles" style="text;html=1;align=left;verticalAlign=middle;resizable=0;points=[];autosize=1;strokeColor=none;fillColor=none;strokeWidth=0;fontSize=20;fontStyle=1" vertex="1" parent="1">
          <mxGeometry x="40" y="3320" width="200" height="40" as="geometry" />
        </mxCell>
        <mxCell id="kvPZV8qKF9iL3hVnG-OZ-2" value="Las entidades débiles son aquellas entidades que dependen de una entidad fuerte." style="text;html=1;align=left;verticalAlign=middle;resizable=0;points=[];autosize=1;strokeColor=none;fillColor=none;" vertex="1" parent="1">
          <mxGeometry x="40" y="3370" width="470" height="30" as="geometry" />
        </mxCell>
        <mxCell id="kvPZV8qKF9iL3hVnG-OZ-3" value="Por ejemplo," style="text;html=1;align=left;verticalAlign=middle;resizable=0;points=[];autosize=1;strokeColor=none;fillColor=none;" vertex="1" parent="1">
          <mxGeometry x="41.25" y="3530" width="90" height="30" as="geometry" />
        </mxCell>
        <mxCell id="kvPZV8qKF9iL3hVnG-OZ-4" value="Existen dos tipos de relaciones:" style="text;html=1;align=left;verticalAlign=middle;resizable=0;points=[];autosize=1;strokeColor=none;fillColor=none;" vertex="1" parent="1">
          <mxGeometry x="40" y="3410" width="190" height="30" as="geometry" />
        </mxCell>
        <mxCell id="kvPZV8qKF9iL3hVnG-OZ-5" value="- &lt;b&gt;Identificacion&lt;/b&gt;: la entidad débil depende de la entidad fuerte para identificarse.&amp;nbsp;" style="text;html=1;align=left;verticalAlign=middle;resizable=0;points=[];autosize=1;strokeColor=none;fillColor=none;" vertex="1" parent="1">
          <mxGeometry x="41.25" y="3450" width="450" height="30" as="geometry" />
        </mxCell>
        <mxCell id="kvPZV8qKF9iL3hVnG-OZ-6" value="- &lt;b&gt;Existencia&lt;/b&gt;: la entidad débil depende de la entidad fuerte para existir, sin esta no tiene sentido su existencia&amp;nbsp;" style="text;html=1;align=left;verticalAlign=middle;resizable=0;points=[];autosize=1;strokeColor=none;fillColor=none;" vertex="1" parent="1">
          <mxGeometry x="41.25" y="3810" width="610" height="30" as="geometry" />
        </mxCell>
        <mxCell id="kvPZV8qKF9iL3hVnG-OZ-7" value="Por ejemplo," style="text;html=1;align=left;verticalAlign=middle;resizable=0;points=[];autosize=1;strokeColor=none;fillColor=none;" vertex="1" parent="1">
          <mxGeometry x="41.25" y="3890" width="90" height="30" as="geometry" />
        </mxCell>
        <mxCell id="kvPZV8qKF9iL3hVnG-OZ-8" value="&lt;span style=&quot;font-weight: 700;&quot;&gt;Queremos registrar empleados en nuestra base de datos su DNI, nombre&amp;nbsp;&lt;/span&gt;&lt;span style=&quot;font-weight: 700; background-color: initial;&quot;&gt;y puesto.&amp;nbsp;&lt;/span&gt;&lt;b&gt;&lt;br&gt;&lt;/b&gt;" style="text;html=1;align=left;verticalAlign=middle;resizable=0;points=[];autosize=1;strokeColor=none;fillColor=none;" vertex="1" parent="1">
          <mxGeometry x="41.25" y="3570" width="500" height="30" as="geometry" />
        </mxCell>
        <mxCell id="kvPZV8qKF9iL3hVnG-OZ-9" value="&lt;span style=&quot;&quot;&gt;La clave de la entidad débil esta formada por la suya y la de la entidad fuerte, siendo ambas las claves identifcativas&lt;/span&gt;" style="text;html=1;align=left;verticalAlign=middle;resizable=0;points=[];autosize=1;strokeColor=none;fillColor=none;" vertex="1" parent="1">
          <mxGeometry x="40" y="3490" width="640" height="30" as="geometry" />
        </mxCell>
        <mxCell id="kvPZV8qKF9iL3hVnG-OZ-10" value="&lt;b&gt;Cada empleado tiene un horario con una hora de entrada y salida.&lt;/b&gt;" style="text;html=1;align=left;verticalAlign=middle;resizable=0;points=[];autosize=1;strokeColor=none;fillColor=none;" vertex="1" parent="1">
          <mxGeometry x="41.25" y="3610" width="400" height="30" as="geometry" />
        </mxCell>
        <mxCell id="kvPZV8qKF9iL3hVnG-OZ-11" value="&lt;span style=&quot;color: rgba(0, 0, 0, 0); font-family: monospace; font-size: 0px; font-weight: 400;&quot;&gt;%3CmxGraphModel%3E%3Croot%3E%3CmxCell%20id%3D%220%22%2F%3E%3CmxCell%20id%3D%221%22%20parent%3D%220%22%2F%3E%3CmxCell%20id%3D%222%22%20value%3D%22Queremos%20registrar%20empleados%20en%20nuestra%20base%20de%20datos%20su%20DNI%2C%20nombre%2C%20fecha%20%26lt%3Bspan%20style%3D%26quot%3Bbackground-color%3A%20initial%3B%26quot%3B%26gt%3By%20puesto.%20Cada%20empleado%20pertence%20a%20un%20departamento.%26lt%3B%2Fspan%26gt%3B%22%20style%3D%22text%3Bhtml%3D1%3Balign%3Dleft%3BverticalAlign%3Dmiddle%3Bresizable%3D0%3Bpoints%3D%5B%5D%3Bautosize%3D1%3BstrokeColor%3Dnone%3BfillColor%3Dnone%3BfontStyle%3D1%22%20vertex%3D%221%22%20parent%3D%221%22%3E%3CmxGeometry%20x%3D%2240%22%20y%3D%222130%22%20width%3D%22750%22%20height%3D%2230%22%20as%3D%22geometry%22%2F%3E%3C%2FmxCell%3E%3C%2Froot%3E%3C%2FmxGraphModel%3E&lt;/span&gt;" style="text;html=1;align=left;verticalAlign=middle;resizable=0;points=[];autosize=1;strokeColor=none;fillColor=none;fontStyle=1" vertex="1" parent="1">
          <mxGeometry x="45" y="3690" width="20" height="30" as="geometry" />
        </mxCell>
        <mxCell id="kvPZV8qKF9iL3hVnG-OZ-12" value="Empleado" style="whiteSpace=wrap;html=1;align=center;" vertex="1" parent="1">
          <mxGeometry x="107.5" y="3730" width="100" height="40" as="geometry" />
        </mxCell>
        <mxCell id="kvPZV8qKF9iL3hVnG-OZ-13" style="edgeStyle=orthogonalEdgeStyle;rounded=0;orthogonalLoop=1;jettySize=auto;html=1;endArrow=none;endFill=0;" edge="1" parent="1" source="kvPZV8qKF9iL3hVnG-OZ-14" target="kvPZV8qKF9iL3hVnG-OZ-12">
          <mxGeometry relative="1" as="geometry" />
        </mxCell>
        <mxCell id="kvPZV8qKF9iL3hVnG-OZ-14" value="nombre" style="ellipse;whiteSpace=wrap;html=1;align=center;" vertex="1" parent="1">
          <mxGeometry x="107.5" y="3670" width="60" height="40" as="geometry" />
        </mxCell>
        <mxCell id="kvPZV8qKF9iL3hVnG-OZ-15" style="edgeStyle=orthogonalEdgeStyle;rounded=0;orthogonalLoop=1;jettySize=auto;html=1;entryX=0;entryY=0.5;entryDx=0;entryDy=0;endArrow=none;endFill=0;" edge="1" parent="1" source="kvPZV8qKF9iL3hVnG-OZ-16" target="kvPZV8qKF9iL3hVnG-OZ-12">
          <mxGeometry relative="1" as="geometry">
            <Array as="points">
              <mxPoint x="67.5" y="3750" />
            </Array>
          </mxGeometry>
        </mxCell>
        <mxCell id="kvPZV8qKF9iL3hVnG-OZ-16" value="DNI" style="ellipse;whiteSpace=wrap;html=1;align=center;fontStyle=4;" vertex="1" parent="1">
          <mxGeometry x="42.5" y="3670" width="50" height="40" as="geometry" />
        </mxCell>
        <mxCell id="kvPZV8qKF9iL3hVnG-OZ-17" style="edgeStyle=orthogonalEdgeStyle;rounded=0;orthogonalLoop=1;jettySize=auto;html=1;entryX=0.796;entryY=0.011;entryDx=0;entryDy=0;endArrow=none;endFill=0;entryPerimeter=0;" edge="1" parent="1" source="kvPZV8qKF9iL3hVnG-OZ-18" target="kvPZV8qKF9iL3hVnG-OZ-12">
          <mxGeometry relative="1" as="geometry">
            <Array as="points">
              <mxPoint x="197.5" y="3690" />
              <mxPoint x="197.5" y="3730" />
              <mxPoint x="187.5" y="3730" />
            </Array>
          </mxGeometry>
        </mxCell>
        <mxCell id="kvPZV8qKF9iL3hVnG-OZ-18" value="puesto" style="ellipse;whiteSpace=wrap;html=1;align=center;" vertex="1" parent="1">
          <mxGeometry x="177.5" y="3670" width="50" height="40" as="geometry" />
        </mxCell>
        <mxCell id="kvPZV8qKF9iL3hVnG-OZ-19" value="hora_salida" style="ellipse;whiteSpace=wrap;html=1;align=center;" vertex="1" parent="1">
          <mxGeometry x="538.13" y="3640" width="83.75" height="40" as="geometry" />
        </mxCell>
        <mxCell id="kvPZV8qKF9iL3hVnG-OZ-20" style="edgeStyle=orthogonalEdgeStyle;rounded=0;orthogonalLoop=1;jettySize=auto;html=1;entryX=1;entryY=0.5;entryDx=0;entryDy=0;" edge="1" parent="1" source="kvPZV8qKF9iL3hVnG-OZ-22" target="kvPZV8qKF9iL3hVnG-OZ-12">
          <mxGeometry relative="1" as="geometry" />
        </mxCell>
        <mxCell id="kvPZV8qKF9iL3hVnG-OZ-21" style="edgeStyle=orthogonalEdgeStyle;rounded=0;orthogonalLoop=1;jettySize=auto;html=1;entryX=0;entryY=0.5;entryDx=0;entryDy=0;" edge="1" parent="1" source="kvPZV8qKF9iL3hVnG-OZ-22">
          <mxGeometry relative="1" as="geometry">
            <mxPoint x="527.5" y="3750" as="targetPoint" />
          </mxGeometry>
        </mxCell>
        <mxCell id="kvPZV8qKF9iL3hVnG-OZ-22" value="tiene" style="shape=rhombus;perimeter=rhombusPerimeter;whiteSpace=wrap;html=1;align=center;" vertex="1" parent="1">
          <mxGeometry x="317.5" y="3730" width="100" height="40" as="geometry" />
        </mxCell>
        <mxCell id="kvPZV8qKF9iL3hVnG-OZ-23" value="(1,1)" style="text;html=1;align=center;verticalAlign=middle;resizable=0;points=[];autosize=1;strokeColor=none;fillColor=none;" vertex="1" parent="1">
          <mxGeometry x="407.5" y="3720" width="50" height="30" as="geometry" />
        </mxCell>
        <mxCell id="kvPZV8qKF9iL3hVnG-OZ-24" value="(1,N)" style="text;html=1;align=center;verticalAlign=middle;resizable=0;points=[];autosize=1;strokeColor=none;fillColor=none;" vertex="1" parent="1">
          <mxGeometry x="272.5" y="3720" width="50" height="30" as="geometry" />
        </mxCell>
        <mxCell id="kvPZV8qKF9iL3hVnG-OZ-25" value="1:N" style="text;html=1;align=center;verticalAlign=middle;resizable=0;points=[];autosize=1;strokeColor=none;fillColor=none;" vertex="1" parent="1">
          <mxGeometry x="347.5" y="3700" width="40" height="30" as="geometry" />
        </mxCell>
        <mxCell id="kvPZV8qKF9iL3hVnG-OZ-26" value="" style="endArrow=none;html=1;rounded=0;" edge="1" parent="1">
          <mxGeometry width="50" height="50" relative="1" as="geometry">
            <mxPoint x="261.25" y="3750" as="sourcePoint" />
            <mxPoint x="631.25" y="3700" as="targetPoint" />
            <Array as="points">
              <mxPoint x="261.25" y="3700" />
            </Array>
          </mxGeometry>
        </mxCell>
        <mxCell id="kvPZV8qKF9iL3hVnG-OZ-27" value="Horario" style="shape=ext;margin=3;double=1;whiteSpace=wrap;html=1;align=center;" vertex="1" parent="1">
          <mxGeometry x="527.5" y="3730" width="100" height="40" as="geometry" />
        </mxCell>
        <mxCell id="kvPZV8qKF9iL3hVnG-OZ-28" value="ID" style="text;strokeColor=none;fillColor=none;spacingLeft=4;spacingRight=4;overflow=hidden;rotatable=0;points=[[0,0.5],[1,0.5]];portConstraint=eastwest;fontSize=12;whiteSpace=wrap;html=1;" vertex="1" parent="1">
          <mxGeometry x="326.25" y="3710" width="40" height="30" as="geometry" />
        </mxCell>
        <mxCell id="kvPZV8qKF9iL3hVnG-OZ-29" style="edgeStyle=orthogonalEdgeStyle;rounded=0;orthogonalLoop=1;jettySize=auto;html=1;entryX=0.526;entryY=-0.044;entryDx=0;entryDy=0;entryPerimeter=0;endArrow=none;endFill=0;" edge="1" parent="1" source="kvPZV8qKF9iL3hVnG-OZ-19" target="kvPZV8qKF9iL3hVnG-OZ-27">
          <mxGeometry relative="1" as="geometry" />
        </mxCell>
        <mxCell id="kvPZV8qKF9iL3hVnG-OZ-30" value="hora_entrada" style="ellipse;whiteSpace=wrap;html=1;align=center;fontStyle=4;" vertex="1" parent="1">
          <mxGeometry x="631.25" y="3680" width="90" height="40" as="geometry" />
        </mxCell>
        <mxCell id="kvPZV8qKF9iL3hVnG-OZ-31" value="&lt;span style=&quot;color: rgba(0, 0, 0, 0); font-family: monospace; font-size: 0px; font-weight: 400;&quot;&gt;%3CmxGraphModel%3E%3Croot%3E%3CmxCell%20id%3D%220%22%2F%3E%3CmxCell%20id%3D%221%22%20parent%3D%220%22%2F%3E%3CmxCell%20id%3D%222%22%20value%3D%22Queremos%20registrar%20empleados%20en%20nuestra%20base%20de%20datos%20su%20DNI%2C%20nombre%2C%20fecha%20%26lt%3Bspan%20style%3D%26quot%3Bbackground-color%3A%20initial%3B%26quot%3B%26gt%3By%20puesto.%20Cada%20empleado%20pertence%20a%20un%20departamento.%26lt%3B%2Fspan%26gt%3B%22%20style%3D%22text%3Bhtml%3D1%3Balign%3Dleft%3BverticalAlign%3Dmiddle%3Bresizable%3D0%3Bpoints%3D%5B%5D%3Bautosize%3D1%3BstrokeColor%3Dnone%3BfillColor%3Dnone%3BfontStyle%3D1%22%20vertex%3D%221%22%20parent%3D%221%22%3E%3CmxGeometry%20x%3D%2240%22%20y%3D%222130%22%20width%3D%22750%22%20height%3D%2230%22%20as%3D%22geometry%22%2F%3E%3C%2FmxCell%3E%3C%2Froot%3E%3C%2FmxGraphModel%3E&lt;/span&gt;" style="text;html=1;align=left;verticalAlign=middle;resizable=0;points=[];autosize=1;strokeColor=none;fillColor=none;fontStyle=1" vertex="1" parent="1">
          <mxGeometry x="45" y="4040" width="20" height="30" as="geometry" />
        </mxCell>
        <mxCell id="kvPZV8qKF9iL3hVnG-OZ-32" value="Empleado" style="whiteSpace=wrap;html=1;align=center;" vertex="1" parent="1">
          <mxGeometry x="107.5" y="4080" width="100" height="40" as="geometry" />
        </mxCell>
        <mxCell id="kvPZV8qKF9iL3hVnG-OZ-33" style="edgeStyle=orthogonalEdgeStyle;rounded=0;orthogonalLoop=1;jettySize=auto;html=1;endArrow=none;endFill=0;" edge="1" parent="1" source="kvPZV8qKF9iL3hVnG-OZ-34" target="kvPZV8qKF9iL3hVnG-OZ-32">
          <mxGeometry relative="1" as="geometry" />
        </mxCell>
        <mxCell id="kvPZV8qKF9iL3hVnG-OZ-34" value="nombre" style="ellipse;whiteSpace=wrap;html=1;align=center;" vertex="1" parent="1">
          <mxGeometry x="107.5" y="4020" width="60" height="40" as="geometry" />
        </mxCell>
        <mxCell id="kvPZV8qKF9iL3hVnG-OZ-35" style="edgeStyle=orthogonalEdgeStyle;rounded=0;orthogonalLoop=1;jettySize=auto;html=1;entryX=0;entryY=0.5;entryDx=0;entryDy=0;endArrow=none;endFill=0;" edge="1" parent="1" source="kvPZV8qKF9iL3hVnG-OZ-36" target="kvPZV8qKF9iL3hVnG-OZ-32">
          <mxGeometry relative="1" as="geometry">
            <Array as="points">
              <mxPoint x="67.5" y="4100" />
            </Array>
          </mxGeometry>
        </mxCell>
        <mxCell id="kvPZV8qKF9iL3hVnG-OZ-36" value="DNI" style="ellipse;whiteSpace=wrap;html=1;align=center;fontStyle=4;" vertex="1" parent="1">
          <mxGeometry x="42.5" y="4020" width="50" height="40" as="geometry" />
        </mxCell>
        <mxCell id="kvPZV8qKF9iL3hVnG-OZ-37" style="edgeStyle=orthogonalEdgeStyle;rounded=0;orthogonalLoop=1;jettySize=auto;html=1;entryX=0.796;entryY=0.011;entryDx=0;entryDy=0;endArrow=none;endFill=0;entryPerimeter=0;" edge="1" parent="1" source="kvPZV8qKF9iL3hVnG-OZ-38" target="kvPZV8qKF9iL3hVnG-OZ-32">
          <mxGeometry relative="1" as="geometry">
            <Array as="points">
              <mxPoint x="197.5" y="4040" />
              <mxPoint x="197.5" y="4080" />
              <mxPoint x="187.5" y="4080" />
            </Array>
          </mxGeometry>
        </mxCell>
        <mxCell id="kvPZV8qKF9iL3hVnG-OZ-38" value="puesto" style="ellipse;whiteSpace=wrap;html=1;align=center;" vertex="1" parent="1">
          <mxGeometry x="177.5" y="4020" width="50" height="40" as="geometry" />
        </mxCell>
        <mxCell id="kvPZV8qKF9iL3hVnG-OZ-39" style="edgeStyle=orthogonalEdgeStyle;rounded=0;orthogonalLoop=1;jettySize=auto;html=1;entryX=1;entryY=0.5;entryDx=0;entryDy=0;" edge="1" parent="1" source="kvPZV8qKF9iL3hVnG-OZ-41" target="kvPZV8qKF9iL3hVnG-OZ-32">
          <mxGeometry relative="1" as="geometry" />
        </mxCell>
        <mxCell id="kvPZV8qKF9iL3hVnG-OZ-40" style="edgeStyle=orthogonalEdgeStyle;rounded=0;orthogonalLoop=1;jettySize=auto;html=1;entryX=0;entryY=0.5;entryDx=0;entryDy=0;" edge="1" parent="1" source="kvPZV8qKF9iL3hVnG-OZ-41">
          <mxGeometry relative="1" as="geometry">
            <mxPoint x="527.5" y="4100" as="targetPoint" />
          </mxGeometry>
        </mxCell>
        <mxCell id="kvPZV8qKF9iL3hVnG-OZ-41" value="trabaja" style="shape=rhombus;perimeter=rhombusPerimeter;whiteSpace=wrap;html=1;align=center;" vertex="1" parent="1">
          <mxGeometry x="317.5" y="4080" width="100" height="40" as="geometry" />
        </mxCell>
        <mxCell id="kvPZV8qKF9iL3hVnG-OZ-42" value="(1,1)" style="text;html=1;align=center;verticalAlign=middle;resizable=0;points=[];autosize=1;strokeColor=none;fillColor=none;" vertex="1" parent="1">
          <mxGeometry x="407.5" y="4070" width="50" height="30" as="geometry" />
        </mxCell>
        <mxCell id="kvPZV8qKF9iL3hVnG-OZ-43" value="(0,1)" style="text;html=1;align=center;verticalAlign=middle;resizable=0;points=[];autosize=1;strokeColor=none;fillColor=none;" vertex="1" parent="1">
          <mxGeometry x="272.5" y="4070" width="50" height="30" as="geometry" />
        </mxCell>
        <mxCell id="kvPZV8qKF9iL3hVnG-OZ-44" value="1:1" style="text;html=1;align=center;verticalAlign=middle;resizable=0;points=[];autosize=1;strokeColor=none;fillColor=none;" vertex="1" parent="1">
          <mxGeometry x="347.5" y="4050" width="40" height="30" as="geometry" />
        </mxCell>
        <mxCell id="kvPZV8qKF9iL3hVnG-OZ-45" value="Puesto" style="shape=ext;margin=3;double=1;whiteSpace=wrap;html=1;align=center;" vertex="1" parent="1">
          <mxGeometry x="527.5" y="4080" width="100" height="40" as="geometry" />
        </mxCell>
        <mxCell id="kvPZV8qKF9iL3hVnG-OZ-46" value="EX" style="text;strokeColor=none;fillColor=none;spacingLeft=4;spacingRight=4;overflow=hidden;rotatable=0;points=[[0,0.5],[1,0.5]];portConstraint=eastwest;fontSize=12;whiteSpace=wrap;html=1;" vertex="1" parent="1">
          <mxGeometry x="326.25" y="4060" width="40" height="30" as="geometry" />
        </mxCell>
        <mxCell id="kvPZV8qKF9iL3hVnG-OZ-47" style="edgeStyle=orthogonalEdgeStyle;rounded=0;orthogonalLoop=1;jettySize=auto;html=1;entryX=0.25;entryY=0;entryDx=0;entryDy=0;endArrow=none;endFill=0;" edge="1" parent="1" source="kvPZV8qKF9iL3hVnG-OZ-48" target="kvPZV8qKF9iL3hVnG-OZ-45">
          <mxGeometry relative="1" as="geometry" />
        </mxCell>
        <mxCell id="kvPZV8qKF9iL3hVnG-OZ-48" value="codigo" style="ellipse;whiteSpace=wrap;html=1;align=center;fontStyle=4;" vertex="1" parent="1">
          <mxGeometry x="523.75" y="4020" width="58.75" height="40" as="geometry" />
        </mxCell>
        <mxCell id="kvPZV8qKF9iL3hVnG-OZ-49" style="edgeStyle=orthogonalEdgeStyle;rounded=0;orthogonalLoop=1;jettySize=auto;html=1;entryX=1;entryY=0;entryDx=0;entryDy=0;endArrow=none;endFill=0;" edge="1" parent="1" source="kvPZV8qKF9iL3hVnG-OZ-50" target="kvPZV8qKF9iL3hVnG-OZ-45">
          <mxGeometry relative="1" as="geometry" />
        </mxCell>
        <mxCell id="kvPZV8qKF9iL3hVnG-OZ-50" value="planta" style="ellipse;whiteSpace=wrap;html=1;align=center;" vertex="1" parent="1">
          <mxGeometry x="603.75" y="4020" width="60" height="40" as="geometry" />
        </mxCell>
        <mxCell id="kvPZV8qKF9iL3hVnG-OZ-51" style="edgeStyle=orthogonalEdgeStyle;rounded=0;orthogonalLoop=1;jettySize=auto;html=1;entryX=1;entryY=0.5;entryDx=0;entryDy=0;endArrow=none;endFill=0;" edge="1" parent="1" source="kvPZV8qKF9iL3hVnG-OZ-52" target="kvPZV8qKF9iL3hVnG-OZ-45">
          <mxGeometry relative="1" as="geometry" />
        </mxCell>
        <mxCell id="kvPZV8qKF9iL3hVnG-OZ-52" value="sala" style="ellipse;whiteSpace=wrap;html=1;align=center;" vertex="1" parent="1">
          <mxGeometry x="663.75" y="4080" width="50" height="40" as="geometry" />
        </mxCell>
        <mxCell id="kvPZV8qKF9iL3hVnG-OZ-53" value="&lt;span style=&quot;font-weight: 700;&quot;&gt;Queremos registrar empleados en nuestra base de datos su DNI, nombre&amp;nbsp;&lt;/span&gt;&lt;span style=&quot;font-weight: 700; background-color: initial;&quot;&gt;y puesto.&amp;nbsp;&lt;/span&gt;&lt;b&gt;&lt;br&gt;&lt;/b&gt;" style="text;html=1;align=left;verticalAlign=middle;resizable=0;points=[];autosize=1;strokeColor=none;fillColor=none;" vertex="1" parent="1">
          <mxGeometry x="40" y="3930" width="500" height="30" as="geometry" />
        </mxCell>
        <mxCell id="kvPZV8qKF9iL3hVnG-OZ-54" value="&lt;b&gt;Cada empleado tiene un puesto donde trabaja, queremos saber en que planta y sala se encuentra. Pueden existir puestos libres&lt;/b&gt;" style="text;html=1;align=left;verticalAlign=middle;resizable=0;points=[];autosize=1;strokeColor=none;fillColor=none;" vertex="1" parent="1">
          <mxGeometry x="41.25" y="3970" width="750" height="30" as="geometry" />
        </mxCell>
        <mxCell id="kvPZV8qKF9iL3hVnG-OZ-55" value="&lt;span style=&quot;&quot;&gt;La clave de la entidad débil esta formada por la suya y la de la entidad fuerte, la clave de la entidad fuerte no identifica a la débil.&lt;/span&gt;" style="text;html=1;align=left;verticalAlign=middle;resizable=0;points=[];autosize=1;strokeColor=none;fillColor=none;" vertex="1" parent="1">
          <mxGeometry x="40" y="3850" width="710" height="30" as="geometry" />
        </mxCell>
      </root>
    </mxGraphModel>
  </diagram>
</mxfile>
